<svg id="레이어_1" data-name="레이어 1" xmlns="http://www.w3.org/2000/svg" viewBox="0 0 50 50"><defs><style>.cls-1{fill:#fff;}</style></defs><title>대지 1</title><path class="cls-1" d="M25,1.38A23.63,23.63,0,1,0,48.63,25,23.61,23.61,0,0,0,25,1.38Zm1.25,38.09a1.82,1.82,0,0,1-1.46.64,1.79,1.79,0,0,1-1.5-.64,2,2,0,0,1-.48-1.38,2.23,2.23,0,0,1,.48-1.46,1.82,1.82,0,0,1,1.5-.63,1.84,1.84,0,0,1,1.46.63,2.15,2.15,0,0,1,.52,1.46A2,2,0,0,1,26.25,39.47Zm6.13-19.21a13.29,13.29,0,0,1-3.08,3.52,9.24,9.24,0,0,0-2.61,3A10.79,10.79,0,0,0,26,31.05a1.17,1.17,0,0,1-.4.91,1.22,1.22,0,0,1-.83.32,1.28,1.28,0,0,1-.87-.32,1.21,1.21,0,0,1-.36-.91,12.18,12.18,0,0,1,.76-4.62A8.49,8.49,0,0,1,27,23a13.31,13.31,0,0,0,3.13-3.48,6.53,6.53,0,0,0,.75-3.16,4.64,4.64,0,0,0-1.27-3.28,5.64,5.64,0,0,0-4.3-1.55,5.38,5.38,0,0,0-4.87,2.3,7.05,7.05,0,0,0-1,3.83,1.3,1.3,0,0,1-.39,1,1.13,1.13,0,0,1-.83.36,1.16,1.16,0,0,1-.87-.28,1.34,1.34,0,0,1-.36-1,7.94,7.94,0,0,1,2.61-6.24,8.35,8.35,0,0,1,5.74-2.1h.43A7.79,7.79,0,0,1,31,11.13a6.7,6.7,0,0,1,2.29,5.42A7.55,7.55,0,0,1,32.38,20.26Z"/></svg>