<svg id="레이어_1" data-name="레이어 1" xmlns="http://www.w3.org/2000/svg" viewBox="0 0 50 50"><defs><style>.cls-1{fill:#282828;}.cls-2{fill:#fff;}</style></defs><title>대지 1</title><circle class="cls-1" cx="25" cy="25" r="23.62"/><path class="cls-2" d="M8.13,11.42V38.79H41.88V11.42Zm3.72,26.15H9.38V35.1h2.47Zm0-3.7H9.38V31.39h2.47Zm0-3.71H9.38V27.68h2.47Zm0-3.71H9.38V24h2.47Zm0-3.71H9.38V20.27h2.47Zm0-3.71H9.38V16.56h2.47Zm0-3.71H9.38V12.85h2.47ZM40.63,37.57H38.15V35.1h2.48Zm0-3.7H38.15V31.39h2.48Zm0-3.71H38.15V27.68h2.48Zm0-3.71H38.15V24h2.48Zm0-3.71H38.15V20.27h2.48Zm0-3.71H38.15V16.56h2.48Zm0-3.71H38.15V12.85h2.48Z"/></svg>