<svg id="레이어_1" data-name="레이어 1" xmlns="http://www.w3.org/2000/svg" viewBox="0 0 50 50"><defs><style>.cls-1{fill:#282828;}.cls-2{fill:#fff;}.cls-3{fill:none;}</style></defs><title>대지 1</title><circle class="cls-1" cx="25" cy="25" r="23.62"/><path class="cls-2" d="M43.35,29.15,41.27,17.86a5.63,5.63,0,0,0-5.53-4.61H31.92a1,1,0,0,0-.7.26L29,15.41H25V31.23h4.61L32,34.28a6.39,6.39,0,0,0,6.35,2.34,6.5,6.5,0,0,0,3.26-1.76c.14-.15.28-.3.41-.46a7.13,7.13,0,0,0,.68-1,7,7,0,0,0,.48-1.12A6.42,6.42,0,0,0,43.35,29.15Zm-8.88-1.71a4.11,4.11,0,1,1,4.11-4.11A4.12,4.12,0,0,1,34.47,27.44Z"/><path class="cls-2" d="M34.47,21.38a1.95,1.95,0,1,0,2,1.95A2,2,0,0,0,34.47,21.38Z"/><path class="cls-3" d="M8.57,22.25H7V20.68a1.08,1.08,0,0,0-2.16,0v1.57H3.27a1.08,1.08,0,1,0,0,2.16H4.84V26A1.08,1.08,0,0,0,7,26V24.41H8.57a1.08,1.08,0,1,0,0-2.16Z"/><path class="cls-2" d="M25,31.23V15.41H21l-2.2-1.9a1,1,0,0,0-.7-.26H14.26a5.63,5.63,0,0,0-5.53,4.61L6.65,29.15A6.42,6.42,0,0,0,18,34.28l2.37-3.05H25Zm-6.43-6.82H17V26a1.08,1.08,0,1,1-2.16,0V24.41H13.27a1.08,1.08,0,1,1,0-2.16h1.57V20.68a1.08,1.08,0,0,1,2.16,0v1.57h1.57a1.08,1.08,0,0,1,0,2.16Z"/></svg>