<svg id="레이어_1" data-name="레이어 1" xmlns="http://www.w3.org/2000/svg" viewBox="0 0 50 50"><defs><style>.cls-1{fill:#fff;}</style></defs><title>대지 1</title><path class="cls-1" d="M47.31,30,44.78,16.32a6.85,6.85,0,0,0-6.72-5.61H33.42a1.34,1.34,0,0,0-.86.32l-2.67,2.31H25V32.58h5.6l2.89,3.7a7.79,7.79,0,0,0,11.67.7,6.52,6.52,0,0,0,.5-.55,8,8,0,0,0,.83-1.23,8.18,8.18,0,0,0,.58-1.36A7.82,7.82,0,0,0,47.31,30ZM36.51,28a5,5,0,1,1,5-5A5,5,0,0,1,36.51,28Z"/><path class="cls-1" d="M36.51,20.6A2.37,2.37,0,1,0,38.88,23,2.37,2.37,0,0,0,36.51,20.6Z"/><path class="cls-1" d="M25,32.58V13.34H20.11L17.44,11a1.34,1.34,0,0,0-.86-.32H11.94a6.84,6.84,0,0,0-6.72,5.61L2.69,30a7.8,7.8,0,0,0,13.82,6.24l2.89-3.7H25Zm-7.82-8.3h-1.9v1.91a1.32,1.32,0,0,1-2.63,0V24.28H10.74a1.32,1.32,0,0,1,0-2.63h1.91v-1.9a1.32,1.32,0,1,1,2.63,0v1.9h1.9a1.32,1.32,0,1,1,0,2.63Z"/></svg>