<?xml version="1.0"?>
<svg xmlns="http://www.w3.org/2000/svg" height="512px" viewBox="0 0 16 16" width="512px" class=""><g><path d="m6 0c-3.30859 0-6 2.69141-6 6 0 1.71289.722656 3.30811 2 4.44873v3.55127h1v2h6v-2h1v-3.55127c1.27734-1.14062 2-2.73584 2-4.44873 0-3.30859-2.69141-6-6-6zm.5 2.5c-2.20917 0-4 1.79083-4 4 0 .966858.351318 1.84351.924988 2.53076-.865723-.730347-1.42499-1.80878-1.42499-3.03076 0-2.20917 1.79083-4 4-4 1.23236 0 2.32074.569214 3.0545 1.4455-.69458-.581543-1.5777-.945496-2.5545-.945496z" transform="translate(2)" data-original="#000000" class="active-path" data-old_color="#000000" fill="#FFFFFF"/></g> </svg>
