<svg id="레이어_1" data-name="레이어 1" xmlns="http://www.w3.org/2000/svg" viewBox="0 0 50 50"><defs><style>.cls-1{fill:#fff;}</style></defs><title>대지 1</title><path class="cls-1" d="M31.25,25.47A6.25,6.25,0,1,1,25,19.22,6.25,6.25,0,0,1,31.25,25.47Z"/><path class="cls-1" d="M9.37,44.22a2.09,2.09,0,0,0,1.48-3.56A22.49,22.49,0,0,1,4.17,25.47a22.52,22.52,0,0,1,6.68-15.2A2.08,2.08,0,0,0,7.9,7.33,26.41,26.41,0,0,0,0,25.47,26.43,26.43,0,0,0,7.9,43.61,2.11,2.11,0,0,0,9.37,44.22Z"/><path class="cls-1" d="M16.05,13.57a2.07,2.07,0,0,0-2.94,0,17.17,17.17,0,0,0,0,23.77,2.06,2.06,0,0,0,1.47.62,2.09,2.09,0,0,0,1.48-3.56,13,13,0,0,1,0-17.89A2.09,2.09,0,0,0,16.05,13.57Z"/><path class="cls-1" d="M39.15,7.33a2.08,2.08,0,0,0,0,2.94,22.52,22.52,0,0,1,6.68,15.2,22.49,22.49,0,0,1-6.68,15.19,2.09,2.09,0,0,0,3,3A26.43,26.43,0,0,0,50,25.47,26.41,26.41,0,0,0,42.1,7.33,2.08,2.08,0,0,0,39.15,7.33Z"/><path class="cls-1" d="M35.42,38a2.06,2.06,0,0,0,1.47-.62,17.17,17.17,0,0,0,0-23.77,2.08,2.08,0,1,0-3,2.94,13,13,0,0,1,0,17.89A2.09,2.09,0,0,0,35.42,38Z"/><path class="cls-1" d="M25,33.8a8.34,8.34,0,1,0-8.33-8.33A8.34,8.34,0,0,0,25,33.8Zm0-12.5a4.17,4.17,0,1,1-4.17,4.17A4.17,4.17,0,0,1,25,21.3Z"/></svg>