<svg id="레이어_1" data-name="레이어 1" xmlns="http://www.w3.org/2000/svg" viewBox="0 0 50 50"><defs><style>.cls-1{fill:#fff;}</style></defs><title>대지 1</title><path class="cls-1" d="M42.5,3H40.81V5.13h-4.2V3H13.48V5.13H9.27V3H7.5V47H9.27V44.92h4.21V47H36.61V44.92h4.2V47H42.5Zm-29,40.61H9.27V39.42h4.21Zm0-5.5H9.27V33.92h4.21Zm0-5.5H9.27V28.42h4.21Zm0-5.5H9.27V22.92h4.21Zm0-5.5H9.27V17.42h4.21Zm0-5.5H9.27V11.92h4.21Zm0-5.5H9.27V6.42h4.21Zm27.33,33h-4.2V39.42h4.2Zm0-5.5h-4.2V33.92h4.2Zm0-5.5h-4.2V28.42h4.2Zm0-5.5h-4.2V22.92h4.2Zm0-5.5h-4.2V17.42h4.2Zm0-5.5h-4.2V11.92h4.2Zm0-5.5h-4.2V6.42h4.2Z"/></svg>