<svg id="레이어_1" data-name="레이어 1" xmlns="http://www.w3.org/2000/svg" viewBox="0 0 50 50"><defs><style>.cls-1{fill:#282828;}.cls-2{fill:#fff;}</style></defs><title>대지 1</title><circle class="cls-1" cx="25" cy="25" r="23.62"/><path class="cls-2" d="M22.18,21.12l-1.75,5.37L25,29.81l4.56-3.32-1.74-5.37Z"/><path class="cls-2" d="M39.67,33.64a16.78,16.78,0,0,0,2.26-6.91l-3.64,2.63Z"/><path class="cls-2" d="M29.65,20.3l1.88,5.78L37,27.87l5-3.66a16.91,16.91,0,0,0-2.73-8.5H33Z"/><path class="cls-2" d="M24,31.55,19.08,28l-5.42,1.75-1.93,5.93A16,16,0,0,0,13,37a17.06,17.06,0,0,0,6,3.89L24,37.25Z"/><path class="cls-2" d="M18.19,9.39A17.1,17.1,0,0,0,13,13c-.23.23-.45.47-.67.71h4.5Z"/><path class="cls-2" d="M8.06,26.68A17,17,0,0,0,10.3,33.6l1.39-4.28Z"/><path class="cls-2" d="M22,19.13H28l3.37-4.61L29.48,8.58A16.7,16.7,0,0,0,25,8a17.28,17.28,0,0,0-4.44.58l-1.94,5.95Z"/><path class="cls-2" d="M18.47,26.08l1.88-5.78L17,15.68H10.76A16.88,16.88,0,0,0,8,24.17l5,3.67Z"/><path class="cls-2" d="M30.91,28,26,31.55v5.7l5,3.67a17.52,17.52,0,0,0,7.2-5.22l-1.92-5.93Z"/><path class="cls-2" d="M37.74,13.71c-.23-.25-.46-.5-.71-.74a16.88,16.88,0,0,0-5.18-3.56l1.39,4.3Z"/><path class="cls-2" d="M21.37,41.63a17.09,17.09,0,0,0,7.26,0L25,39Z"/></svg>