<svg id="레이어_1" data-name="레이어 1" xmlns="http://www.w3.org/2000/svg" viewBox="0 0 200 50"><defs><style>.cls-1{fill:#f10;}.cls-2{fill:#fff;}</style></defs><title>대지 1</title><path class="cls-1" d="M63.5,10.63A7.77,7.77,0,0,0,58,5.14C53.18,3.85,33.79,3.85,33.79,3.85s-19.4,0-24.24,1.29a7.79,7.79,0,0,0-5.48,5.49c-1.3,4.83-1.3,14.93-1.3,14.93s0,10.09,1.3,14.92A7.79,7.79,0,0,0,9.55,46c4.84,1.29,24.24,1.29,24.24,1.29S53.18,47.26,58,46a7.77,7.77,0,0,0,5.48-5.49c1.3-4.83,1.3-14.92,1.3-14.92S64.8,15.46,63.5,10.63Z"/><polygon class="cls-2" points="27.58 34.86 43.7 25.55 27.58 16.25 27.58 34.86"/><path class="cls-2" d="M92.8,43.35a6.79,6.79,0,0,1-2.62-3.86,25.66,25.66,0,0,1-.77-7V28.58a23,23,0,0,1,.88-7.06,7.1,7.1,0,0,1,2.78-3.88A9,9,0,0,1,98,16.42a8.45,8.45,0,0,1,4.84,1.25,7.13,7.13,0,0,1,2.66,3.88,23.86,23.86,0,0,1,.84,7v3.94a24.13,24.13,0,0,1-.82,7,6.89,6.89,0,0,1-2.66,3.86,9,9,0,0,1-5,1.22A9.06,9.06,0,0,1,92.8,43.35Zm6.87-4.26a13.29,13.29,0,0,0,.51-4.35V26.27A13.09,13.09,0,0,0,99.67,22a1.82,1.82,0,0,0-1.79-1.35A1.8,1.8,0,0,0,96.13,22a13.09,13.09,0,0,0-.51,4.28v8.47a14.07,14.07,0,0,0,.48,4.35,1.79,1.79,0,0,0,1.78,1.33A1.81,1.81,0,0,0,99.67,39.09Z"/><path class="cls-2" d="M187,32.59V34a37,37,0,0,0,.16,3.93,3.77,3.77,0,0,0,.64,1.91,1.84,1.84,0,0,0,1.51.6,1.91,1.91,0,0,0,1.89-1.07,9.48,9.48,0,0,0,.55-3.55l5.28.31a8.44,8.44,0,0,1,0,1q0,3.76-2.06,5.63a8.4,8.4,0,0,1-5.83,1.86c-3,0-5.13-.94-6.35-2.83S181,36.91,181,32.94V28.2c0-4.08.62-7.06,1.88-8.94s3.41-2.82,6.45-2.82a8.52,8.52,0,0,1,4.84,1.16,6.19,6.19,0,0,1,2.37,3.59,25.87,25.87,0,0,1,.69,6.74v4.66Zm.78-11.44a3.69,3.69,0,0,0-.62,1.88,37.57,37.57,0,0,0-.16,4V29h4.48V27a35.22,35.22,0,0,0-.17-4,3.84,3.84,0,0,0-.65-1.91,1.77,1.77,0,0,0-1.44-.55A1.73,1.73,0,0,0,187.78,21.15Z"/><path class="cls-2" d="M77.9,32.08l-7-25.15H77l2.44,11.4c.62,2.81,1.08,5.2,1.37,7.19H81q.31-2.13,1.37-7.15L84.9,6.93H91l-7,25.15V44.14h-6Z"/><path class="cls-2" d="M126.11,17V44.14h-4.79l-.53-3.32h-.13a6.27,6.27,0,0,1-5.86,3.77,4.59,4.59,0,0,1-4-1.78q-1.29-1.77-1.29-5.54V17h6.13V36.91a6.23,6.23,0,0,0,.39,2.6,1.38,1.38,0,0,0,1.33.78,2.72,2.72,0,0,0,1.53-.49A3.08,3.08,0,0,0,120,38.56V17Z"/><path class="cls-2" d="M157.51,17V44.14h-4.79l-.53-3.32h-.14a6.26,6.26,0,0,1-5.85,3.77,4.57,4.57,0,0,1-4-1.78q-1.29-1.77-1.29-5.54V17H147V36.91a6,6,0,0,0,.4,2.6,1.38,1.38,0,0,0,1.33.78,2.77,2.77,0,0,0,1.53-.49,3.08,3.08,0,0,0,1.09-1.24V17Z"/><path class="cls-2" d="M142.74,11.85h-6.07V44.14h-6V11.85H124.6V6.93h18.14Z"/><path class="cls-2" d="M177.77,21.3a7,7,0,0,0-1.8-3.72,4.84,4.84,0,0,0-3.42-1.16,5.6,5.6,0,0,0-3.14,1,6.5,6.5,0,0,0-2.27,2.5h0V5.56h-5.9V44.14h5.06l.62-2.57H167a5.2,5.2,0,0,0,2.13,2.18,6.32,6.32,0,0,0,3.15.79,4.82,4.82,0,0,0,4.57-2.86q1.45-2.85,1.46-8.93V28.44A35.78,35.78,0,0,0,177.77,21.3Zm-5.61,11.09a34.65,34.65,0,0,1-.25,4.66,5,5,0,0,1-.82,2.39,1.87,1.87,0,0,1-1.55.71,2.83,2.83,0,0,1-1.4-.35,2.68,2.68,0,0,1-1-1.07V23.3a3.89,3.89,0,0,1,1.06-1.82,2.38,2.38,0,0,1,1.64-.71,1.68,1.68,0,0,1,1.45.73A5.74,5.74,0,0,1,172,24a46.61,46.61,0,0,1,.2,4.92Z"/></svg>